External Loads File
version=1
nRows=54
nColumns=13
Range=5.000000e-03-10 seconds
endheader
time 	forceRightX 	forceRightY 	forceRightZ 	pointRightX 	pointRightY 	pointRightZ 	forceLeftX 	forceLeftY 	forceLeftZ 	pointLeftX 	pointLeftY 	pointLeftZ 		
7.505000 -121.598330 50.668788 -0.000000 0.319779 0.509157 -0.120398 135.004647 193.695131 -0.000000 0.219868 0.165382 -0.363708
7.510000 -128.424020 78.520996 -0.000000 0.327384 0.504624 -0.119871 123.298632 161.518454 -0.000000 0.211874 0.169415 -0.363465
7.515000 -137.423424 110.344586 -0.000000 0.334820 0.499192 -0.119350 112.041294 133.668194 -0.000000 0.203963 0.174038 -0.363160
7.520000 -148.684935 146.380467 -0.000000 0.341945 0.493061 -0.118674 101.867984 110.224821 -0.000000 0.195678 0.179206 -0.361122
7.525000 -162.573527 186.085762 -0.000000 0.348977 0.486222 -0.118092 92.888999 91.333739 -0.000000 0.188190 0.184905 -0.360841
7.530000 -178.628989 229.200600 -0.000000 0.355794 0.478782 -0.117640 85.533976 76.471330 -0.000000 0.180771 0.191198 -0.360555
7.535000 -196.590199 274.733583 -0.000000 0.362392 0.470849 -0.117302 79.791866 65.250989 -0.000000 0.173698 0.197973 -0.360377
7.540000 -215.990759 321.535259 -0.000000 0.368676 0.462512 -0.116940 75.612265 57.156982 -0.000000 0.166937 0.205159 -0.360143
7.545000 -235.811366 368.666097 -0.000000 0.374834 0.453701 -0.116702 72.917355 51.548514 -0.000000 0.160553 0.213009 -0.360088
7.550000 -255.615604 414.811016 -0.000000 0.380745 0.444510 -0.116558 71.427741 47.940596 -0.000000 0.154588 0.221226 -0.359778
7.555000 -274.712131 458.991061 -0.000000 0.386503 0.435059 -0.116530 70.863097 45.820989 -0.000000 0.148917 0.229665 -0.359902
7.560000 -292.843903 500.214858 -0.000000 0.391614 0.425227 -0.116491 70.878372 44.815578 -0.000000 0.143848 0.238471 -0.359958
7.565000 -309.267413 538.070086 -0.000000 0.396402 0.415218 -0.116467 71.189895 44.545190 -0.000000 0.139302 0.247521 -0.359973
7.570000 -323.710787 572.159026 -0.000000 0.400594 0.405093 -0.116330 71.503774 44.768967 -0.000000 0.135295 0.256827 -0.359888
7.575000 -334.801439 603.000322 -0.000000 0.404623 0.394847 -0.116385 71.676566 45.185507 -0.000000 0.131705 0.266567 -0.359921
7.580000 -342.437559 630.632023 -0.000000 0.408026 0.384387 -0.116456 71.573001 45.709127 -0.000000 0.128739 0.276753 -0.359871
7.585000 -346.318271 655.350514 -0.000000 0.410897 0.373617 -0.116433 71.197240 46.229761 -0.000000 0.126279 0.287114 -0.359998
7.590000 -346.632108 677.260922 -0.000000 0.413215 0.362802 -0.116337 70.596751 46.663990 -0.000000 0.124398 0.297693 -0.359849
7.595000 -342.882937 696.858133 -0.000000 0.414926 0.351796 -0.116160 69.878749 46.818058 -0.000000 0.123061 0.308459 -0.359850
7.600000 -335.829397 714.015751 -0.000000 0.416010 0.340851 -0.116006 69.041159 46.610629 -0.000000 0.122272 0.319277 -0.359844
7.605000 -325.740722 728.901619 -0.000000 0.416391 0.330061 -0.115880 68.115242 45.918751 -0.000000 0.121986 0.330142 -0.359696
7.610000 -312.055976 742.066084 -0.000000 0.416251 0.319272 -0.116083 67.211111 44.543405 -0.000000 0.122181 0.341189 -0.359470
7.615000 -295.100090 753.606936 -0.000000 0.415635 0.308591 -0.115737 66.403532 42.347808 -0.000000 0.122863 0.352534 -0.359343
7.620000 -277.279001 762.809394 -0.000000 0.414473 0.298055 -0.115826 65.656359 39.367298 -0.000000 0.124100 0.363423 -0.359185
7.625000 -256.738631 770.528915 -0.000000 0.412158 0.287534 -0.115145 65.137464 35.299127 -0.000000 0.125821 0.374428 -0.358928
7.630000 -235.654953 776.020847 -0.000000 0.409372 0.277325 -0.115099 64.762256 30.263809 -0.000000 0.127941 0.385283 -0.358526
7.635000 -213.849270 779.353488 -0.000000 0.406160 0.267285 -0.115026 64.553295 24.280916 -0.000000 0.130573 0.396038 -0.358488
7.640000 -191.866670 780.402289 -0.000000 0.402325 0.257568 -0.115457 64.509201 17.544738 -0.000000 0.133642 0.406691 -0.358222
7.645000 -170.168401 779.156958 -0.000000 0.397945 0.248265 -0.115326 64.646922 10.352885 -0.000000 0.137110 0.417281 -0.358065
7.650000 -148.988054 775.732878 -0.000000 0.393039 0.239178 -0.115508 65.000628 3.073002 -0.000000 0.141071 0.427534 -0.357946
7.655000 -128.405801 770.323029 -0.000000 0.387564 0.230448 -0.115475 65.610428 -3.903150 -0.000000 0.145911 0.437193 -0.359746
7.660000 -110.159006 762.910682 -0.000000 0.381506 0.222191 -0.115413 66.530425 -10.057983 -0.000000 0.150563 0.446335 -0.359663
7.665000 -93.353905 753.990736 -0.000000 0.374921 0.214237 -0.115414 67.795875 -15.159418 -0.000000 0.155831 0.454544 -0.359981
7.670000 -78.187069 743.912285 -0.000000 0.367899 0.206875 -0.115437 69.405137 -18.999669 -0.000000 0.161302 0.462476 -0.360029
7.675000 -64.417397 733.075191 -0.000000 0.360476 0.199927 -0.115554 71.284337 -21.541607 -0.000000 0.167200 0.469875 -0.360115
7.680000 -51.795317 721.802768 -0.000000 0.352675 0.193472 -0.115589 73.308276 -22.845023 -0.000000 0.173644 0.476809 -0.360583
7.685000 -41.408997 710.254379 -0.000000 0.344571 0.187707 -0.115520 75.371060 -22.909978 -0.000000 0.180264 0.483061 -0.360694
7.690000 -31.990458 698.691010 -0.000000 0.336034 0.182394 -0.115593 77.243474 -22.076296 -0.000000 0.187241 0.488741 -0.360703
7.695000 -23.541042 687.228926 -0.000000 0.327230 0.177504 -0.115604 78.655416 -20.642343 -0.000000 0.194578 0.493779 -0.361014
7.700000 -16.142327 675.986545 -0.000000 0.318128 0.173214 -0.115512 79.256208 -18.916074 -0.000000 0.202114 0.498048 -0.361199
7.705000 -9.591447 665.080634 -0.000000 0.308753 0.169584 -0.115457 78.618218 -17.198066 -0.000000 0.209824 0.501199 -0.361412
7.710000 -2.316148 654.555695 -0.000000 0.298965 0.166374 -0.115366 76.261275 -15.849684 -0.000000 0.217901 0.503627 -0.361699
7.715000 5.278121 644.288567 -0.000000 0.289286 0.163881 -0.115438 71.828527 -14.824615 -0.000000 0.226375 0.505632 -0.361823
7.720000 14.215000 634.006485 -0.000000 0.279220 0.162018 -0.115380 65.096190 -14.045288 -0.000000 0.235033 0.507369 -0.361979
7.725000 24.006299 623.332008 -0.000000 0.269118 0.160849 -0.115206 56.116588 -13.132194 -0.000000 0.243867 0.508395 -0.361907
7.730000 33.333017 611.987919 -0.000000 0.259298 0.160275 -0.115115 45.199615 -11.633398 -0.000000 0.252328 0.509690 -0.362374
7.735000 42.882922 599.815983 -0.000000 0.249743 0.160342 -0.115096 32.778869 -9.324456 -0.000000 0.260890 0.509613 -0.362283
7.740000 50.572706 587.102842 -0.000000 0.240739 0.160889 -0.115029 19.410436 -5.856060 -0.000000 0.268607 0.509087 -0.363366
7.745000 57.804122 574.137993 -0.000000 0.232256 0.161758 -0.115012 5.604922 -1.110969 -0.000000 0.276358 0.508139 -0.363454
7.750000 63.318473 561.594303 -0.000000 0.224437 0.163000 -0.115000 -8.135611 5.086294 -0.000000 0.283480 0.506987 -0.363292
7.755000 67.199803 550.104679 -0.000000 0.217397 0.164254 -0.114929 -21.370361 12.769441 -0.000000 0.289977 0.505447 -0.363471
7.760000 69.316582 540.245837 -0.000000 0.211137 0.165581 -0.114924 -33.699262 21.826447 -0.000000 0.295608 0.504054 -0.363642
7.765000 70.758395 532.176400 -0.000000 0.205572 0.166751 -0.114946 -44.721600 32.038622 -0.000000 0.300608 0.502173 -0.363881
7.770000 70.521931 525.932947 -0.000000 0.201041 0.167795 -0.114859 -54.204572 42.888394 -0.000000 0.304627 0.500823 -0.364003
